<?xml version="1.0" encoding="UTF-8"?>
<svg xmlns="http://www.w3.org/2000/svg" width="100%" height="100%" viewBox="0 0 800 600" preserveAspectRatio="xMidYMid meet">
  
  <text x="400" y="30" text-anchor="middle" font-family="Arial" font-size="16" font-weight="bold">LIVE SCOREBOARD SYSTEM</text>
  
  
  <rect x="50" y="60" width="700" height="40" fill="#e1f5fe" stroke="#01579b" stroke-width="2" />
  <text x="400" y="85" text-anchor="middle" font-family="Arial" font-size="14" font-weight="bold">Frontend Layer</text>
  
  
  <rect x="80" y="120" width="180" height="60" fill="#f3e5f5" stroke="#4a148c" stroke-width="2" />
  <text x="170" y="150" text-anchor="middle" font-family="Arial" font-size="12">Web Client</text>
  <text x="170" y="165" text-anchor="middle" font-family="Arial" font-size="10">(Scoreboard)</text>
  
  <rect x="310" y="120" width="180" height="60" fill="#f3e5f5" stroke="#4a148c" stroke-width="2" />
  <text x="400" y="150" text-anchor="middle" font-family="Arial" font-size="12">Mobile App</text>
  <text x="400" y="165" text-anchor="middle" font-family="Arial" font-size="10">(Game UI)</text>
  
  <rect x="540" y="120" width="180" height="60" fill="#f3e5f5" stroke="#4a148c" stroke-width="2" />
  <text x="630" y="150" text-anchor="middle" font-family="Arial" font-size="12">Dashboard</text>
  <text x="630" y="165" text-anchor="middle" font-family="Arial" font-size="10">(Admin)</text>
  
  
  <line x1="170" y1="180" x2="170" y2="220" stroke="#666" stroke-width="2" />
  <line x1="400" y1="180" x2="400" y2="220" stroke="#666" stroke-width="2" />
  <line x1="630" y1="180" x2="630" y2="220" stroke="#666" stroke-width="2" />
  
  
  <rect x="300" y="220" width="200" height="60" fill="#e8f5e8" stroke="#1b5e20" stroke-width="2" />
  <text x="400" y="250" text-anchor="middle" font-family="Arial" font-size="12">Load Balancer</text>
  <text x="400" y="265" text-anchor="middle" font-family="Arial" font-size="10">(Nginx/HAProxy)</text>
  
  
  <line x1="400" y1="280" x2="400" y2="320" stroke="#666" stroke-width="2" />
  
  
  <rect x="250" y="320" width="300" height="60" fill="#fff3e0" stroke="#e65100" stroke-width="2" />
  <text x="400" y="345" text-anchor="middle" font-family="Arial" font-size="12">API Gateway</text>
  <text x="400" y="360" text-anchor="middle" font-family="Arial" font-size="10">(Auth, Rate Limiting, Request Validation)</text>
  
  
  <line x1="400" y1="380" x2="400" y2="410" stroke="#666" stroke-width="2" />
  
  
  <rect x="100" y="410" width="180" height="60" fill="#e3f2fd" stroke="#0d47a1" stroke-width="2" />
  <text x="190" y="435" text-anchor="middle" font-family="Arial" font-size="12">Score Service</text>
  <text x="190" y="450" text-anchor="middle" font-family="Arial" font-size="10">(Core Logic)</text>
  
  <rect x="310" y="410" width="180" height="60" fill="#e3f2fd" stroke="#0d47a1" stroke-width="2" />
  <text x="400" y="435" text-anchor="middle" font-family="Arial" font-size="12">WebSocket</text>
  <text x="400" y="450" text-anchor="middle" font-family="Arial" font-size="10">Service</text>
  
  <rect x="520" y="410" width="180" height="60" fill="#e3f2fd" stroke="#0d47a1" stroke-width="2" />
  <text x="610" y="435" text-anchor="middle" font-family="Arial" font-size="12">Auth Service</text>
  <text x="610" y="450" text-anchor="middle" font-family="Arial" font-size="10">(JWT/Session)</text>
  
  
  <line x1="190" y1="470" x2="190" y2="500" stroke="#666" stroke-width="2" />
  <line x1="400" y1="470" x2="400" y2="500" stroke="#666" stroke-width="2" />
  <line x1="610" y1="470" x2="610" y2="500" stroke="#666" stroke-width="2" />
  
  
  <rect x="50" y="500" width="150" height="60" fill="#fce4ec" stroke="#880e4f" stroke-width="2" />
  <text x="125" y="525" text-anchor="middle" font-family="Arial" font-size="12">PostgreSQL</text>
  <text x="125" y="540" text-anchor="middle" font-family="Arial" font-size="10">(Primary Database)</text>
  
  <rect x="220" y="500" width="120" height="60" fill="#fce4ec" stroke="#880e4f" stroke-width="2" />
  <text x="280" y="525" text-anchor="middle" font-family="Arial" font-size="12">Redis</text>
  <text x="280" y="540" text-anchor="middle" font-family="Arial" font-size="10">(Cache + Pub)</text>
  
  <rect x="360" y="500" width="150" height="60" fill="#fce4ec" stroke="#880e4f" stroke-width="2" />
  <text x="435" y="525" text-anchor="middle" font-family="Arial" font-size="12">Message Queue</text>
  <text x="435" y="540" text-anchor="middle" font-family="Arial" font-size="10">(Real-time)</text>
  
  <rect x="530" y="500" width="150" height="60" fill="#fce4ec" stroke="#880e4f" stroke-width="2" />
  <text x="605" y="525" text-anchor="middle" font-family="Arial" font-size="12">Fraud Detection</text>
  <text x="605" y="540" text-anchor="middle" font-family="Arial" font-size="10">Engine</text>
  
  <rect x="700" y="500" width="150" height="60" fill="#fce4ec" stroke="#880e4f" stroke-width="2" />
  <text x="775" y="525" text-anchor="middle" font-family="Arial" font-size="12">Monitoring &amp; Logs</text>
  <text x="775" y="540" text-anchor="middle" font-family="Arial" font-size="10">(Prometheus)</text>
</svg>